<svg width="64" height="64" xmlns="http://www.w3.org/2000/svg">

 <g>
  <title>background</title>
  <rect fill="none" id="canvas_background" height="402" width="582" y="-1" x="-1"/>
 </g>
 <g>
  <title>Layer 1</title>
  <path id="svg_5" fill="#011010" d="m36,52l-1,-5a18.587,18.587 0 0 0 12,-5c-0.421,0.11 -8.2,3 -15,3s-14.579,-2.89 -15,-3a18.587,18.587 0 0 0 12,5l-1,5a55.746,55.746 0 0 1 -16.1,-3.093a5.972,5.972 0 0 1 -3.894,-5.848a117.465,117.465 0 0 1 4.113,-25.359a6,6 0 0 1 4.13,-4.177a55.127,55.127 0 0 1 12.751,-1.523a23.189,23.189 0 0 0 -11,6c0.421,-0.11 7.2,-3.008 14,-3a43.061,43.061 0 0 1 14.029,2.972a23.088,23.088 0 0 0 -11.029,-5.972a55.127,55.127 0 0 1 12.751,1.519a6,6 0 0 1 4.13,4.177a117.465,117.465 0 0 1 4.113,25.363a5.972,5.972 0 0 1 -3.894,5.848a55.746,55.746 0 0 1 -16.1,3.093z"/>
  <circle id="svg_6" fill="#ffffff" r="5" cy="33" cx="22"/>
  <circle id="svg_7" fill="#ffffff" r="5" cy="33" cx="42"/>
 </g>
</svg>